<?xml version="1.0" encoding="utf-8"?>
<svg viewBox="0 0 500 500" xmlns="http://www.w3.org/2000/svg">
  <g transform="matrix(0.04295600578188897, 0, 0, -0.03959600254893303, -23.470957331066415, 508.05563084501847)" fill="#000000" stroke="none" style="">
    <path d="M5370 10450 c-272 -29 -652 -126 -865 -220 -714 -317 -1285 -827 -1535 -1374 -48 -103 -52 -106 -112 -81 -46 19 -100 4 -129 -35 -18 -23 -29 -29 -60 -28 -44 0 -85 -22 -101 -56 -5 -13 -27 -31 -48 -39 -64 -25 -80 -67 -66 -165 8 -50 6 -56 -19 -82 -21 -22 -27 -38 -27 -69 0 -22 5 -48 11 -59 8 -15 4 -22 -21 -36 -28 -17 -58 -68 -58 -100 0 -7 -19 -32 -41 -55 -41 -40 -41 -42 -37 -98 3 -36 0 -70 -8 -90 -14 -33 -12 -47 13 -99 13 -25 14 -37 4 -64 -6 -18 -11 -47 -11 -65 0 -28 -5 -34 -50 -55 -27 -13 -59 -33 -70 -45 -29 -31 -36 -85 -15 -124 16 -32 16 -33 -9 -52 -56 -44 -54 -148 4 -191 27 -20 28 -22 14 -54 -8 -18 -14 -43 -14 -55 0 -25 39 -99 53 -99 5 0 6 -17 2 -39 -8 -51 15 -105 57 -131 27 -17 43 -20 89 -15 56 6 57 5 64 -22 19 -77 77 -112 157 -92 l50 11 -38 39 c-21 22 -44 39 -51 39 -8 0 -16 8 -20 18 -3 9 -27 39 -52 67 l-46 50 46 -43 c38 -36 47 -41 53 -27 11 29 7 51 -13 69 -18 16 -23 16 -100 0 -96 -21 -112 -14 -86 36 9 17 14 38 11 45 -3 9 0 12 10 8 27 -10 13 50 -15 63 -27 14 -54 8 -44 -10 3 -6 -6 0 -20 13 -26 24 -36 37 -19 27 9 -5 72 116 72 138 0 28 -31 47 -69 44 -53 -4 -47 24 14 70 62 47 69 85 20 112 -16 9 -30 22 -30 29 0 7 34 29 75 50 l75 36 -3 63 c-3 49 1 69 17 96 27 43 26 57 -4 86 -30 28 -32 46 -5 60 32 17 36 57 10 85 -32 35 -20 59 25 51 27 -5 39 -2 55 14 25 25 25 34 -1 76 -11 19 -18 38 -14 44 3 5 26 10 50 10 46 0 75 19 75 48 0 9 -16 39 -35 66 -27 38 -32 52 -24 63 6 7 18 13 25 13 28 0 35 41 21 117 -17 87 -12 100 34 84 54 -19 98 24 70 69 -16 25 -3 29 51 15 56 -15 82 -8 93 24 3 10 3 26 -1 35 -9 23 18 20 34 -4 16 -26 42 -25 94 1 54 28 115 19 162 -22 36 -31 56 -35 88 -18 18 10 24 7 45 -20 33 -43 76 -43 95 -1 17 40 33 38 64 -10 41 -62 96 -67 117 -10 6 17 16 30 22 30 6 0 28 -22 48 -50 29 -39 43 -50 65 -50 22 0 32 7 45 35 9 19 21 35 27 35 5 0 33 -29 61 -65 70 -89 82 -95 122 -53 18 18 46 50 63 71 29 35 31 36 46 20 8 -10 25 -45 38 -78 27 -69 46 -95 70 -95 10 0 50 30 90 68 40 37 75 68 79 70 3 1 31 -35 60 -80 76 -116 80 -117 141 -61 47 42 49 41 94 -44 36 -68 69 -80 106 -41 l22 23 40 -45 c22 -25 51 -62 64 -82 31 -48 63 -50 101 -8 14 17 32 30 39 30 7 0 26 -25 43 -55 27 -47 35 -55 60 -55 20 0 35 8 49 27 11 15 24 23 30 19 7 -4 44 -45 82 -92 84 -100 97 -103 160 -39 24 25 47 45 50 45 3 0 28 -36 55 -81 41 -68 69 -99 88 -99 2 0 21 14 42 30 21 17 41 30 45 30 5 0 20 -34 36 -75 23 -65 52 -105 74 -105 4 0 31 18 60 40 l54 40 10 -32 c13 -40 56 -50 87 -22 25 23 34 11 44 -55 12 -78 48 -100 99 -60 15 12 29 19 32 17 2 -3 17 -29 32 -59 23 -46 31 -54 52 -51 14 2 44 4 68 5 45 2 49 -1 114 -81 6 -8 20 -11 34 -8 85 21 78 24 71 -27 -11 -75 21 -92 119 -62 68 21 98 20 89 -2 -17 -46 -16 -69 5 -96 25 -31 59 -35 96 -11 22 15 26 15 42 2 9 -9 29 -18 44 -22 47 -11 87 -54 103 -111 9 -29 22 -58 29 -64 18 -15 81 -27 73 -14 -10 15 73 -4 98 -23 84 -62 110 -74 158 -74 49 0 49 0 43 -27 -20 -85 -19 -100 5 -117 13 -9 32 -16 43 -16 11 0 37 -12 58 -26 29 -20 38 -34 38 -55 0 -23 8 -32 40 -49 45 -23 94 -92 125 -173 15 -40 16 -54 6 -86 -6 -21 -11 -61 -11 -88 0 -40 -5 -54 -25 -73 -32 -30 -32 -42 6 -100 24 -37 43 -53 85 -71 62 -26 124 -87 124 -122 0 -13 -12 -34 -26 -48 -20 -18 -24 -30 -20 -52 5 -26 0 -32 -82 -84 -48 -31 -88 -57 -88 -57 -1 -1 -4 -11 -8 -22 -5 -16 5 -37 39 -82 50 -66 55 -82 25 -82 -11 0 -27 -12 -36 -26 -17 -24 -16 -27 14 -70 18 -24 32 -47 32 -49 0 -2 -22 -7 -50 -11 -53 -7 -86 -32 -77 -61 2 -10 18 -55 35 -99 l31 -82 -91 -33 c-118 -42 -121 -50 -75 -158 35 -81 35 -101 -2 -81 -57 30 -81 1 -81 -101 0 -43 -4 -79 -10 -79 -5 0 -24 18 -41 40 -53 66 -101 48 -114 -42 -4 -28 -13 -48 -20 -48 -6 0 -34 27 -61 61 -81 101 -100 100 -160 -11 -21 -38 -41 -70 -44 -70 -4 0 -26 41 -51 90 -24 50 -52 93 -61 96 -29 9 -57 -5 -64 -32 -9 -34 -31 -30 -43 9 -18 60 -62 171 -73 184 -17 21 -50 15 -81 -14 -16 -16 -31 -23 -33 -18 -2 6 -19 35 -37 65 -31 51 -36 55 -70 55 -35 0 -41 6 -143 135 -126 161 -170 210 -188 210 -7 0 -33 -16 -57 -34 -49 -40 -63 -36 -74 20 -14 77 -43 106 -84 85 -11 -6 -24 -11 -29 -11 -5 0 -20 41 -32 91 -13 52 -31 100 -42 111 -22 22 -56 17 -77 -13 -7 -10 -18 -19 -24 -19 -5 0 -35 27 -64 60 -59 65 -90 75 -120 40 -10 -11 -22 -20 -28 -20 -6 0 -33 34 -60 75 -53 79 -72 93 -104 76 -11 -6 -24 -11 -30 -11 -5 0 -36 34 -67 76 -68 90 -94 110 -123 94 -11 -6 -25 -20 -31 -31 -17 -30 -34 -21 -88 46 -38 48 -54 60 -76 60 -16 0 -32 -7 -36 -15 -32 -70 -37 -75 -73 -84 -31 -8 -42 -6 -64 10 -15 11 -31 33 -36 50 -16 50 -27 57 -76 50 -39 -5 -48 -3 -73 21 -15 15 -28 37 -28 49 0 23 -24 54 -41 54 -6 0 -16 15 -24 34 -18 42 -40 50 -91 34 -34 -11 -40 -18 -44 -48 -8 -58 -35 -51 -115 30 -81 82 -104 87 -137 35 -33 -51 -52 -45 -93 29 -20 35 -42 69 -50 76 -27 23 -59 7 -97 -50 -20 -30 -42 -55 -49 -55 -7 0 -16 14 -21 31 -10 41 -16 45 -124 83 -80 28 -95 30 -119 19 -25 -11 -29 -10 -47 12 -11 14 -33 51 -49 83 -47 92 -82 90 -148 -8 -58 -87 -67 -86 -106 9 -13 32 -28 52 -44 58 -21 8 -30 2 -75 -47 -59 -63 -76 -61 -76 11 0 109 -35 119 -146 43 -86 -60 -104 -59 -104 3 0 24 -3 67 -7 96 -8 74 -21 79 -139 51 l-94 -23 37 -39 c33 -33 43 -38 71 -33 32 5 32 4 33 -37 1 -23 1 -45 0 -50 -2 -15 27 -72 45 -89 26 -23 80 -36 69 -17 -6 11 -5 12 6 1 20 -18 37 -15 85 17 l43 30 18 -37 c36 -73 114 -97 173 -54 l30 22 32 -35 c60 -65 144 -57 198 17 l28 38 26 -44 c40 -69 71 -88 131 -83 68 6 152 -19 159 -47 3 -12 19 -35 36 -51 26 -25 40 -30 80 -30 42 0 54 5 83 33 l33 32 14 -26 c38 -71 120 -95 186 -55 l31 19 46 -44 c74 -71 128 -82 191 -39 42 29 51 26 70 -18 18 -44 77 -94 128 -108 29 -7 54 -24 80 -54 21 -24 55 -49 74 -55 50 -17 117 -7 163 23 l39 26 36 -34 c48 -45 98 -55 157 -31 11 5 28 -9 58 -48 45 -61 84 -86 130 -86 25 0 36 -9 68 -55 48 -69 96 -94 154 -78 39 10 41 9 66 -24 33 -43 56 -56 112 -63 l45 -5 18 -61 c20 -70 43 -95 94 -103 30 -5 38 -12 49 -43 25 -75 91 -102 163 -67 l45 22 16 -20 c9 -11 62 -79 119 -152 94 -119 107 -132 147 -143 36 -10 47 -18 61 -50 26 -58 48 -73 109 -73 l53 0 17 -50 c38 -108 79 -143 153 -132 36 6 37 5 62 -46 19 -39 35 -57 64 -71 36 -17 43 -18 80 -5 36 12 72 49 90 92 3 7 20 -5 43 -31 49 -55 102 -66 157 -32 20 12 36 26 36 31 0 6 20 7 48 3 86 -11 142 36 142 121 0 35 4 45 16 45 26 0 71 31 83 57 17 36 13 86 -9 138 -11 26 -20 48 -20 50 0 2 17 9 38 16 75 24 113 49 128 84 13 31 12 41 -10 110 -23 74 -24 75 -4 75 11 0 35 15 54 34 36 36 44 78 23 117 -8 16 -7 29 5 54 24 50 20 87 -15 135 l-32 43 29 21 c96 70 110 84 125 126 9 25 23 62 32 82 20 44 21 60 6 111 -14 53 -68 109 -145 152 -67 38 -72 43 -51 63 6 7 15 48 19 90 16 172 24 206 59 264 19 32 37 58 40 58 3 0 16 -42 29 -92 13 -51 42 -147 66 -213 121 -343 196 -480 618 -1142 76 -120 146 -231 155 -246 30 -52 262 -412 272 -421 16 -17 10 -26 -16 -26 -69 0 -110 -54 -103 -134 3 -44 2 -46 -27 -51 -69 -14 -95 -27 -115 -59 -24 -39 -26 -86 -5 -125 l14 -29 -47 -17 c-68 -26 -93 -45 -109 -82 -16 -40 -9 -76 23 -119 22 -29 22 -33 7 -45 -9 -8 -29 -32 -45 -53 -33 -47 -37 -97 -9 -143 l20 -31 -34 -54 c-46 -72 -47 -114 -1 -162 18 -20 41 -36 50 -36 9 0 16 -1 16 -2 0 -2 -7 -28 -15 -58 -22 -84 -19 -120 13 -160 23 -27 38 -35 77 -39 l48 -6 -2 -93 c-3 -107 9 -135 65 -158 21 -9 34 -21 34 -32 0 -17 32 -104 60 -163 21 -45 69 -73 125 -75 28 -1 64 -9 80 -18 17 -9 41 -16 53 -16 37 0 93 30 105 57 13 29 23 29 42 -1 9 -13 32 -32 52 -41 51 -25 99 -13 146 36 l37 40 29 -20 c16 -12 33 -21 39 -21 5 0 30 -18 55 -40 37 -33 52 -40 87 -40 35 0 48 6 77 35 23 23 42 34 53 30 30 -10 72 14 129 73 31 32 47 48 37 35 l-19 -23 36 0 c28 0 46 8 75 34 36 34 37 34 18 55 -16 17 -22 19 -35 9 -10 -8 -9 -4 3 10 19 22 32 30 22 13 -3 -5 1 -14 10 -22 13 -10 16 -9 20 8 5 18 10 20 37 12 61 -18 125 10 151 65 12 25 24 35 49 40 62 12 102 75 92 143 -6 43 -5 47 29 75 23 18 39 44 46 69 6 22 16 39 23 38 38 -5 63 5 94 36 35 35 36 36 29 100 l-6 63 35 12 c40 13 104 72 106 97 6 70 -5 212 -19 238 -9 17 -19 59 -23 93 -4 40 -14 74 -27 92 -20 27 -20 30 -5 68 9 23 13 52 9 66 -7 30 -53 86 -71 86 -9 0 -10 11 -3 51 12 65 -3 113 -43 136 -25 15 -29 23 -29 61 0 59 -12 77 -63 97 -32 12 -49 14 -70 6 -30 -12 -32 -10 -41 40 -8 45 -50 85 -97 94 -39 7 -68 -3 -105 -37 -21 -19 -22 -19 -59 6 -21 14 -42 26 -47 26 -6 0 -22 9 -36 20 -19 16 -38 20 -77 19 -27 -1 -61 4 -74 11 -15 8 -40 10 -68 6 -39 -5 -45 -3 -53 17 -5 12 -21 108 -35 212 -14 105 -42 303 -61 440 -57 413 -63 453 -84 625 -35 277 -80 566 -116 745 -42 206 -61 274 -83 299 -9 11 -10 16 -3 12 18 -11 10 28 -40 214 -87 317 -174 485 -354 681 -211 230 -339 391 -734 924 -231 312 -367 471 -581 681 -489 478 -1000 741 -1659 856 -161 28 -197 30 -450 33 -151 2 -309 0 -350 -5z m830 -65 c13 -14 21 -25 18 -25 -2 0 -15 11 -28 25 -13 14 -21 25 -18 25 2 0 15 -11 28 -25z m76 -77 l29 -33 -32 29 c-31 28 -38 36 -30 36 2 0 16 -15 33 -32z m414 -51 c0 -2 -10 -12 -22 -23 l-23 -19 19 23 c18 21 26 27 26 19z m-3199 -754 c13 -16 12 -17 -3 -4 -10 7 -18 15 -18 17 0 8 8 3 21 -13z m5930 -2320 c13 -16 12 -17 -3 -4 -10 7 -18 15 -18 17 0 8 8 3 21 -13z m69 -68 c13 -14 21 -25 18 -25 -2 0 -15 11 -28 25 -13 14 -21 25 -18 25 2 0 15 -11 28 -25z m-6789 -542 c13 -16 12 -17 -3 -4 -10 7 -18 15 -18 17 0 8 8 3 21 -13z m50 -50 c13 -16 12 -17 -3 -4 -10 7 -18 15 -18 17 0 8 8 3 21 -13z m6939 -576 c0 -2 -10 -12 -22 -23 l-23 -19 19 23 c18 21 26 27 26 19z m-141 -1306 c22 -32 48 -61 57 -65 24 -9 52 2 64 25 15 28 31 24 63 -16 20 -25 36 -35 56 -35 32 0 45 13 55 53 8 32 24 34 56 7 27 -24 53 -26 70 -5 15 18 40 20 40 3 0 -19 31 -48 52 -48 10 0 27 9 38 20 11 11 23 20 26 20 3 0 17 -9 31 -20 14 -11 34 -20 44 -20 11 0 22 -13 30 -37 26 -82 53 -83 131 -6 67 67 77 64 84 -23 7 -86 12 -102 34 -114 23 -12 50 -2 92 37 35 33 47 24 37 -29 -12 -62 -11 -66 11 -88 14 -14 28 -18 45 -14 30 7 30 7 9 -86 l-17 -73 23 -19 c12 -10 35 -18 51 -18 34 0 37 -17 10 -51 -36 -46 -35 -65 5 -109 34 -37 36 -44 32 -89 -4 -42 -1 -55 24 -93 24 -34 28 -49 22 -73 -7 -32 -8 -67 -3 -99 3 -15 -12 -27 -65 -56 -94 -50 -100 -60 -76 -123 17 -43 18 -54 6 -65 -10 -10 -22 -11 -48 -4 -24 6 -39 6 -49 -2 -23 -18 -49 -72 -47 -96 2 -18 -5 -25 -30 -34 -46 -16 -54 -35 -50 -119 l3 -72 -46 0 c-57 0 -77 -16 -81 -63 -2 -26 -9 -40 -26 -48 -12 -6 -35 -22 -50 -35 -26 -23 -26 -23 2 8 l28 32 -38 16 c-63 27 -85 13 -104 -65 -18 -72 -30 -81 -79 -56 -16 9 -37 16 -45 16 -23 0 -46 -29 -46 -56 0 -14 -5 -34 -11 -45 -10 -20 -10 -20 -45 0 -19 12 -44 21 -54 21 -24 0 -50 -37 -50 -72 0 -37 -12 -35 -53 7 -19 19 -41 35 -50 35 -9 0 -30 13 -47 30 -35 34 -37 34 -105 12 -36 -12 -54 -25 -63 -45 -22 -46 -37 -43 -100 24 -73 78 -93 77 -136 -6 -29 -57 -52 -69 -76 -40 -7 8 -9 15 -5 15 4 0 2 7 -5 15 -17 20 -59 19 -82 -2 -18 -16 -20 -16 -39 4 -23 22 -69 141 -69 176 0 32 -27 67 -53 67 -44 0 -46 8 -36 124 8 93 7 113 -6 133 -15 22 -20 23 -80 17 -77 -8 -76 -11 -42 116 31 113 25 130 -46 130 -23 0 -40 5 -43 14 -3 8 16 46 41 84 53 79 56 109 13 130 -16 7 -28 20 -28 28 0 8 27 46 60 85 75 87 76 100 14 132 -17 9 -34 23 -37 30 -5 14 -1 17 146 81 51 22 57 28 57 54 0 22 -10 39 -35 61 -53 46 -47 57 38 71 118 21 136 43 98 119 -25 49 -16 63 42 60 56 -3 77 13 77 57 0 39 -2 38 38 18 18 -8 40 -14 49 -12 24 4 43 45 43 91 0 47 19 56 58 27 43 -32 69 -20 99 46 13 30 31 54 38 54 8 0 32 -26 54 -59z m1231 -1264 c0 -2 -12 -14 -27 -28 l-28 -24 24 28 c23 25 31 32 31 24z m-80 -80 c0 -2 -12 -14 -27 -28 l-28 -24 24 28 c23 25 31 32 31 24z m-90 -90 c0 -2 -10 -12 -22 -23 l-23 -19 19 23 c18 21 26 27 26 19z m-70 -70 c0 -2 -12 -14 -27 -28 l-28 -24 24 28 c23 25 31 32 31 24z m-140 -140 c0 -2 -10 -12 -22 -23 l-23 -19 19 23 c18 21 26 27 26 19z" style="fill: rgb(253, 1, 0);"/>
  </g>
</svg>