<svg width="20" height="20" viewBox="0 0 20 20" fill="none" xmlns="https://www.w3.org/2000/svg">
<path fill-rule="evenodd" clip-rule="evenodd" d="M20 10C20 15.5228 15.5228 20 10 20C4.47715 20 0 15.5228 0 10C0 4.47715 4.47715 0 10 0C15.5228 0 20 4.47715 20 10ZM10.0037 5C9.95039 5 9.89707 5 9.83308 5.01073C9.10794 5.09659 8.58541 5.72977 8.68139 6.42735L9.1506 10.2157C9.20391 10.6235 9.57715 10.9348 10.0037 10.9348C10.4409 10.9348 10.8035 10.6235 10.8568 10.2157L11.326 6.42735C11.3367 6.37369 11.3367 6.32003 11.3367 6.26637C11.3367 5.56879 10.7395 5 10.0037 5ZM10.0034 15C10.7367 15 11.3367 14.4065 11.3367 13.6812C11.3367 12.9558 10.7367 12.3623 10.0034 12.3623C9.27002 12.3623 8.67001 12.9558 8.67001 13.6812C8.67001 14.4065 9.27002 15 10.0034 15Z" fill="white"/>
</svg>
