<svg width="14" height="14" viewBox="0 0 14 14" fill="none" xmlns="https://www.w3.org/2000/svg">
    <path fill-rule="evenodd" clip-rule="evenodd"
        d="M13.7071 0.297459C13.3166 -0.0991528 12.6834 -0.0991531 12.2929 0.297459L7 5.67286L1.70711 0.297459C1.31658 -0.0991528 0.683418 -0.0991528 0.292893 0.297459C-0.0976309 0.694071 -0.0976312 1.33711 0.292893 1.73372L5.58579 7.10912L0.507782 12.2663C0.117258 12.6629 0.117258 13.3059 0.507782 13.7025C0.898306 14.0992 1.53147 14.0992 1.922 13.7025L7 8.54538L12.078 13.7025C12.4685 14.0992 13.1017 14.0992 13.4922 13.7025C13.8827 13.3059 13.8827 12.6629 13.4922 12.2663L8.41422 7.10912L13.7071 1.73372C14.0976 1.33711 14.0976 0.694071 13.7071 0.297459Z"
        fill="#001F3E" />
</svg>